<?xml version="1.0" standalone="no"?>
<!DOCTYPE svg PUBLIC "-//W3C//DTD SVG 20010904//EN"
 "http://www.w3.org/TR/2001/REC-SVG-20010904/DTD/svg10.dtd">
<svg version="1.0" xmlns="http://www.w3.org/2000/svg"
 width="1360.000000pt" height="1360.000000pt" viewBox="0 0 1360.000000 1360.000000"
 preserveAspectRatio="xMidYMid meet">
<metadata>
Created by potrace 1.14, written by Peter Selinger 2001-2017
</metadata>
<g transform="translate(0.000000,1360.000000) scale(0.100000,-0.100000)"
fill="#000000" stroke="none">
<path d="M8000 9560 c4 -22 4 -43 0 -45 -4 -3 -4 -20 0 -39 4 -19 4 -53 0 -75
-4 -23 -4 -41 0 -41 4 0 4 -18 0 -40 -4 -22 -4 -40 0 -40 4 0 4 -18 0 -40 -4
-23 -3 -40 2 -40 5 0 7 -4 3 -10 -5 -8 -6 -59 -5 -165 1 -11 0 -44 0 -73 0
-29 2 -57 5 -62 3 -6 2 -10 -3 -10 -5 0 -6 -19 -2 -43 3 -24 3 -52 0 -63 -4
-10 -4 -29 1 -40 4 -12 6 -24 3 -27 -6 -6 -9 -125 -3 -131 2 -2 2 -41 -1 -86
-3 -45 -2 -86 1 -92 3 -5 3 -24 0 -41 -4 -18 -4 -51 -1 -74 4 -24 4 -43 0 -43
-4 0 -4 -20 0 -43 3 -24 3 -52 0 -63 -4 -10 -4 -29 1 -40 4 -12 6 -24 3 -27
-5 -4 -8 -107 -4 -132 3 -27 1 -157 -3 -162 -3 -2 -2 -17 3 -32 4 -16 4 -34 0
-40 -4 -7 -4 -30 0 -52 4 -21 5 -39 1 -39 -3 0 -6 -20 -6 -44 0 -24 1 -43 3
-41 2 2 17 -1 33 -5 16 -5 29 -5 29 0 0 4 15 5 33 1 17 -4 47 -4 65 0 18 3 35
3 38 -2 2 -4 15 -4 28 1 12 4 28 5 35 1 7 -5 29 -5 49 -1 21 3 49 3 65 -1 15
-4 27 -4 27 1 0 4 15 4 33 1 17 -4 47 -4 65 0 17 4 32 3 32 -1 0 -5 14 -5 30
0 17 5 30 5 30 0 0 -5 13 -5 30 0 17 5 30 5 30 0 0 -5 13 -5 29 0 15 4 34 4
42 0 7 -5 20 -5 29 0 9 5 22 5 30 0 8 -5 21 -5 30 0 9 5 22 5 30 0 8 -5 21 -5
30 0 9 5 22 5 28 1 7 -4 35 -5 62 -1 27 4 55 3 62 -1 6 -4 19 -4 28 1 9 5 22
5 30 0 8 -5 21 -5 30 0 9 5 22 5 30 0 8 -5 21 -5 30 0 9 5 22 5 29 0 8 -4 27
-4 42 0 16 5 29 5 29 1 0 -9 37 -8 46 1 3 3 19 2 35 -2 16 -5 29 -5 29 0 0 4
16 4 35 0 19 -4 35 -4 35 0 0 4 16 4 35 0 19 -4 35 -4 35 0 0 5 12 5 27 1 15
-4 46 -4 70 -1 24 4 43 4 43 1 0 -3 31 -6 70 -6 38 0 70 3 70 6 0 4 16 3 35
-1 19 -4 35 -5 35 -1 0 7 96 5 116 -3 8 -3 14 -1 14 4 0 5 13 5 30 0 17 -5 30
-5 30 0 0 5 13 5 30 0 17 -5 30 -5 30 0 0 5 13 5 30 0 17 -5 30 -5 30 0 0 5
13 5 30 0 20 -6 30 -5 30 2 0 7 4 7 13 0 6 -5 21 -6 32 -2 11 4 27 4 36 -1 8
-4 21 -4 29 1 7 4 24 4 36 0 14 -6 26 -5 29 0 3 5 18 5 35 0 17 -5 30 -5 30 0
0 4 12 5 27 1 15 -4 46 -4 70 -1 24 4 43 4 43 1 0 -3 31 -6 70 -6 38 0 70 3
70 6 0 4 16 3 35 -1 19 -4 35 -5 35 -1 0 7 109 5 117 -3 3 -3 13 -1 22 4 10 5
23 5 31 0 8 -5 21 -5 30 0 9 5 22 5 30 0 8 -5 21 -5 30 0 9 5 22 5 29 0 8 -4
27 -4 42 0 16 5 29 5 29 0 0 -5 13 -5 30 0 17 5 30 5 30 0 0 -5 13 -5 30 0 17
5 30 6 30 2 0 -4 29 -7 65 -7 36 0 65 3 65 7 0 4 12 3 28 -1 15 -4 38 -5 52
-1 14 4 37 3 53 -1 15 -4 27 -4 27 1 0 4 15 5 33 1 17 -4 47 -4 65 0 17 3 32
3 32 -2 0 -4 14 -4 30 1 17 5 30 5 30 0 0 -5 13 -5 30 0 17 5 30 5 30 0 0 -5
13 -5 29 0 15 4 34 4 42 0 7 -5 20 -5 29 0 9 5 22 5 30 0 8 -5 21 -5 30 0 9 5
22 5 30 0 8 -5 21 -5 30 0 9 5 22 5 29 1 7 -5 29 -5 49 -1 21 3 49 3 65 -1 15
-4 27 -4 27 1 0 4 15 5 33 1 17 -4 47 -4 65 0 17 3 32 3 32 -2 0 -4 14 -4 30
1 17 5 30 5 30 0 0 -5 13 -5 30 0 17 5 30 5 30 0 0 -5 13 -5 29 0 15 4 34 4
42 0 7 -5 20 -5 29 0 9 5 22 5 30 0 8 -5 21 -5 30 0 9 5 22 5 30 0 8 -5 21 -5
30 0 9 5 22 5 28 1 7 -4 35 -5 62 -1 27 4 55 3 62 -1 6 -4 19 -4 28 1 9 5 22
5 30 0 8 -5 21 -5 30 0 9 5 22 5 30 0 8 -5 21 -5 30 0 9 5 22 5 29 0 8 -4 27
-4 42 0 16 5 29 5 29 0 0 -5 13 -5 30 0 17 5 30 5 30 0 0 -5 13 -5 30 0 17 5
30 6 30 2 0 -4 29 -7 65 -7 36 0 65 4 65 8 0 5 4 5 10 2 13 -8 108 -11 115 -3
4 3 20 2 36 -2 16 -5 31 -5 34 0 3 4 14 6 25 3 20 -5 20 0 20 1036 l0 1041
-2804 0 -2803 0 7 -40z"/>
<path d="M3172 9553 c-10 -21 -40 -73 -65 -116 -26 -43 -47 -83 -47 -88 0 -5
-4 -9 -10 -9 -5 0 -10 -9 -10 -20 0 -11 -3 -20 -8 -20 -4 0 -22 -28 -40 -62
-18 -35 -42 -76 -52 -93 -11 -16 -26 -43 -35 -60 -19 -38 -47 -86 -169 -295
-15 -25 -34 -61 -44 -80 -9 -19 -20 -37 -23 -40 -4 -3 -19 -30 -35 -60 -15
-30 -30 -57 -33 -60 -5 -4 -18 -27 -65 -115 -6 -11 -13 -22 -17 -25 -3 -3 -18
-30 -33 -60 -16 -30 -31 -57 -35 -60 -3 -3 -15 -23 -27 -45 -11 -22 -47 -85
-79 -140 -61 -107 -97 -169 -127 -225 -11 -19 -28 -48 -38 -65 -10 -16 -34
-58 -52 -92 -18 -35 -36 -63 -40 -63 -5 0 -8 -9 -8 -20 0 -11 -4 -20 -10 -20
-5 0 -10 -4 -10 -9 0 -5 -21 -45 -46 -88 -26 -43 -58 -97 -70 -120 -25 -45
-52 -93 -100 -178 -15 -27 -32 -51 -36 -53 -4 -2 -8 -9 -8 -16 0 -7 -13 -32
-28 -57 -16 -24 -42 -69 -58 -99 -17 -30 -67 -118 -111 -195 -45 -78 -93 -163
-109 -190 -15 -28 -31 -53 -36 -56 -6 -3 -10 -10 -10 -15 -1 -13 -11 -38 -18
-44 -6 -5 -104 -175 -175 -305 -15 -27 -30 -54 -35 -60 -4 -5 -19 -31 -33 -56
-43 -78 -52 -94 -58 -99 -6 -5 -16 -30 -17 -43 -1 -4 -8 -15 -17 -23 -8 -9
-15 -21 -15 -29 0 -7 -4 -15 -8 -17 -4 -1 -23 -30 -41 -63 -61 -109 -108 -190
-132 -230 -10 -16 -33 -58 -51 -92 -18 -35 -36 -63 -40 -63 -5 0 -8 -9 -8 -20
0 -11 -4 -20 -10 -20 -5 0 -10 -4 -10 -10 0 -5 -18 -39 -40 -75 -22 -36 -40
-69 -40 -74 0 -5 -6 -16 -13 -23 -12 -14 -15 -18 -58 -98 -13 -25 -27 -47 -30
-50 -3 -3 -18 -31 -34 -62 -16 -32 -33 -58 -37 -58 -4 0 -8 -6 -8 -13 0 -7
-13 -33 -28 -58 -16 -24 -44 -73 -64 -109 -20 -36 -49 -88 -66 -116 -16 -27
-40 -70 -54 -95 -14 -24 -40 -71 -59 -104 -18 -33 -37 -61 -41 -63 -4 -2 -8
-8 -8 -14 0 -5 -36 -73 -81 -150 -45 -78 -90 -156 -100 -175 l-19 -33 3195 0
c2384 0 3195 3 3195 11 0 7 -13 34 -30 61 -16 26 -30 53 -30 58 0 6 -4 10 -10
10 -5 0 -10 4 -10 9 0 6 -17 38 -37 73 -45 76 -65 112 -89 158 -10 19 -20 37
-23 40 -4 3 -14 21 -24 40 -30 59 -52 95 -59 98 -5 2 -8 7 -8 12 0 4 -31 63
-70 130 -38 67 -70 126 -70 131 0 5 -4 9 -10 9 -5 0 -10 4 -10 9 0 9 -58 112
-208 371 -30 52 -65 113 -77 135 -46 85 -78 140 -85 150 -9 12 -43 72 -77 137
-14 26 -30 48 -36 48 -6 0 -8 3 -5 6 4 3 -25 60 -63 126 -38 66 -69 124 -69
129 0 5 -4 9 -8 9 -4 0 -13 12 -20 28 -14 31 -55 105 -62 112 -3 3 -11 16 -18
30 -7 14 -23 43 -36 65 -13 22 -34 60 -48 85 -14 25 -44 76 -67 114 -22 37
-41 70 -41 73 0 3 -15 31 -34 62 -18 31 -46 79 -61 106 -16 28 -35 61 -42 75
-8 14 -23 39 -33 55 -10 17 -30 51 -43 76 -45 81 -69 124 -77 134 -7 10 -39
65 -85 150 -12 22 -47 83 -77 135 -162 279 -224 389 -284 497 -14 27 -30 53
-34 58 -4 6 -30 51 -58 100 -27 50 -58 106 -70 125 -11 19 -43 76 -71 125 -28
50 -56 97 -61 105 -5 8 -18 31 -28 50 -10 19 -33 59 -50 88 -18 29 -32 57 -32
62 0 5 -7 13 -16 18 -9 5 -15 12 -14 16 1 5 -72 141 -100 186 -12 18 -101 175
-143 250 -17 30 -70 124 -119 208 -48 85 -88 158 -88 163 0 5 -4 9 -9 9 -5 0
-11 6 -13 13 -5 23 -143 257 -150 257 -4 0 -16 -17 -26 -37z"/>
<path d="M8045 6080 c-3 -4 -15 -6 -26 -3 -19 5 -21 3 -17 -21 3 -14 2 -29 -2
-31 -4 -3 -4 -22 0 -44 4 -22 4 -45 0 -51 -4 -7 -4 -27 0 -45 4 -18 4 -39 0
-45 -4 -7 -4 -24 0 -39 4 -14 4 -35 0 -46 -4 -11 -4 -32 0 -46 4 -15 4 -32 0
-39 -4 -6 -4 -26 0 -44 4 -17 4 -40 0 -51 -4 -11 -4 -30 1 -41 4 -12 6 -24 3
-27 -5 -4 -8 -109 -4 -132 4 -25 0 -157 -5 -166 -4 -5 -2 -9 3 -9 5 0 6 -17 2
-40 -4 -22 -4 -40 0 -40 4 0 4 -18 0 -40 -4 -23 -3 -40 2 -40 5 0 6 -5 3 -10
-4 -6 -6 -47 -5 -93 0 -45 0 -91 0 -102 -1 -11 -1 -27 -1 -35 1 -8 1 -28 0
-45 0 -16 0 -37 0 -45 1 -8 1 -35 0 -60 -1 -25 -1 -52 0 -60 1 -8 1 -28 0 -45
-1 -16 0 -37 0 -45 1 -8 1 -26 0 -40 0 -14 0 -32 0 -40 3 -80 1 -161 -4 -170
-3 -5 -2 -10 3 -10 5 0 6 -17 2 -40 -4 -22 -4 -40 0 -40 4 0 4 -18 0 -40 -4
-22 -4 -40 0 -40 4 0 4 -18 0 -40 l-7 -40 2803 0 2804 0 0 1041 c0 866 -2
1040 -13 1036 -8 -3 -20 -1 -27 3 -8 5 -21 5 -30 0 -9 -5 -22 -5 -28 -1 -7 4
-32 5 -56 1 -24 -3 -51 -3 -62 0 -10 4 -31 4 -46 -1 -15 -4 -30 -4 -33 1 -3 5
-15 6 -29 0 -12 -4 -29 -4 -36 0 -8 5 -21 5 -30 0 -9 -5 -22 -5 -28 -1 -7 4
-32 5 -56 1 -24 -3 -51 -3 -62 0 -10 4 -31 4 -46 -1 -15 -4 -30 -4 -33 1 -3 5
-15 6 -29 0 -12 -4 -29 -4 -36 0 -8 5 -21 5 -30 0 -9 -5 -22 -5 -28 -1 -7 4
-35 5 -62 1 -27 -4 -55 -3 -62 1 -6 4 -19 4 -28 -1 -9 -5 -22 -5 -30 0 -7 4
-24 4 -36 0 -14 -6 -26 -5 -29 0 -3 5 -18 5 -34 0 -16 -4 -32 -6 -35 -3 -7 7
-105 7 -112 0 -3 -3 -18 -1 -34 3 -16 4 -31 6 -34 3 -7 -8 -101 -7 -113 0 -5
3 -15 2 -23 -3 -7 -4 -23 -5 -35 0 -11 4 -28 4 -37 -1 -10 -6 -19 -6 -22 0 -4
6 -18 6 -35 1 -16 -4 -32 -6 -35 -3 -3 3 -28 6 -56 6 -28 0 -53 -3 -56 -6 -3
-3 -18 -1 -34 3 -16 4 -31 6 -34 3 -7 -8 -105 -7 -113 1 -3 3 -13 1 -22 -4
-10 -5 -23 -5 -31 0 -7 4 -24 4 -36 0 -14 -6 -26 -5 -29 0 -3 5 -18 5 -34 0
-16 -4 -32 -6 -35 -3 -7 7 -105 7 -112 0 -3 -3 -18 -1 -34 3 -16 4 -31 6 -34
3 -7 -8 -101 -7 -113 0 -5 3 -15 2 -23 -3 -7 -4 -23 -5 -35 0 -11 4 -28 4 -37
-1 -10 -6 -19 -6 -22 0 -4 6 -18 6 -35 1 -16 -4 -32 -6 -35 -3 -7 7 -105 7
-112 0 -3 -3 -18 -1 -34 3 -16 4 -31 6 -34 3 -7 -8 -105 -7 -113 1 -3 3 -13 1
-22 -4 -10 -5 -23 -5 -31 0 -7 4 -24 4 -36 0 -14 -6 -26 -5 -29 0 -3 5 -18 5
-34 0 -16 -4 -32 -6 -35 -3 -7 7 -105 7 -112 0 -3 -3 -18 -1 -34 3 -16 4 -31
6 -34 3 -7 -8 -101 -7 -113 0 -5 3 -15 2 -23 -3 -7 -4 -23 -5 -35 0 -11 4 -28
4 -37 -1 -10 -6 -19 -6 -22 0 -4 6 -18 6 -35 1 -16 -4 -32 -6 -35 -3 -7 7
-105 7 -112 0 -3 -3 -18 -1 -34 3 -16 4 -31 6 -34 3 -7 -8 -105 -7 -113 1 -3
3 -13 1 -22 -4 -10 -5 -23 -5 -31 0 -7 4 -24 4 -36 0 -14 -6 -26 -5 -29 0 -3
5 -18 5 -34 0 -16 -4 -32 -6 -35 -3 -7 7 -105 7 -112 0 -3 -3 -18 -1 -34 3
-16 4 -31 6 -34 3 -7 -8 -101 -7 -113 0 -5 3 -15 2 -23 -3 -7 -4 -23 -5 -35 0
-11 4 -28 4 -37 -1 -10 -6 -19 -6 -22 0 -4 6 -18 6 -35 1 -16 -4 -32 -6 -35
-3 -7 7 -105 7 -112 0 -3 -3 -18 -1 -34 3 -16 4 -31 6 -34 3 -7 -8 -105 -7
-113 1 -3 3 -13 1 -22 -4 -10 -5 -23 -5 -31 0 -7 4 -24 4 -36 0 -14 -6 -26 -5
-29 0 -3 5 -18 5 -34 0 -16 -4 -32 -6 -35 -3 -7 7 -105 7 -112 0 -3 -3 -18 -1
-34 3 -16 4 -31 6 -34 3 -7 -8 -101 -7 -113 0 -5 3 -15 2 -23 -3 -7 -4 -23 -5
-35 0 -11 4 -28 4 -37 -1 -10 -6 -19 -6 -22 0 -4 6 -18 6 -35 1 -16 -4 -32 -6
-35 -3 -7 7 -105 7 -112 0 -3 -3 -19 -1 -35 3 -16 5 -31 5 -34 0z"/>
</g>
</svg>
